<?xml version="1.0" encoding="UTF-8" standalone="no"?>
<!DOCTYPE svg PUBLIC "-//W3C//DTD SVG 1.1//EN" "http://www.w3.org/Graphics/SVG/1.1/DTD/svg11.dtd">
<svg width="100%" height="100%" viewBox="0 0 2481 3508" version="1.1" xmlns="http://www.w3.org/2000/svg" xmlns:xlink="http://www.w3.org/1999/xlink" xml:space="preserve" xmlns:serif="http://www.serif.com/" style="fill-rule:evenodd;clip-rule:evenodd;stroke-linejoin:round;stroke-miterlimit:2;">
    <g transform="matrix(1,0,0,1,-61,167)">
        <path d="M1361,550C1806.395,550 2168,911.605 2168,1357C2168,1802.395 1806.395,2164 1361,2164C915.605,2164 554,1802.395 554,1357C554,911.605 915.605,550 1361,550ZM1361,953.5C1583.698,953.5 1764.5,1134.302 1764.5,1357C1764.5,1579.698 1583.698,1760.5 1361,1760.5C1138.302,1760.5 957.5,1579.698 957.5,1357C957.5,1134.302 1138.302,953.5 1361,953.5Z" style="fill:rgb(240,249,255);"/>
    </g>
</svg>
